<svg id="Layer_1" data-name="Layer 1" xmlns="http://www.w3.org/2000/svg" viewBox="0 0 107.96 49.76"><defs><style>.cls-1{fill:#231f20;}</style></defs><title>Artboard 1</title><path class="cls-1" d="M11.57,1.35a9,9,0,0,1,4.58,1.12l.93.53a.91.91,0,0,0,.5.17A.45.45,0,0,0,18,3l.3-.44a.27.27,0,0,1,.25-.11c.29,0,.44.3.44.91V5.62l.11,1.07.13.63a4.29,4.29,0,0,1,.08.83c0,.35-.13.53-.39.53s-.25-.11-.29-.34a6.45,6.45,0,0,0-.79-1.63A10.64,10.64,0,0,0,16.58,5a7.29,7.29,0,0,0-5.44-2.64A5.2,5.2,0,0,0,6.82,4.51a9.08,9.08,0,0,0-1.66,5.66,9.81,9.81,0,0,0,2.71,7.26,6.27,6.27,0,0,0,4.45,2,7.71,7.71,0,0,0,3-.68,7.18,7.18,0,0,0,2.5-1.69l.92-1a.61.61,0,0,1,.38-.24c.17,0,.26.09.26.31A3.73,3.73,0,0,1,18.28,18a9.2,9.2,0,0,1-7.18,3.29,8.94,8.94,0,0,1-6.71-2.65,9.41,9.41,0,0,1-2.57-6.87,11.36,11.36,0,0,1,1-4.54A9.94,9.94,0,0,1,5.37,3.62,9.27,9.27,0,0,1,11.57,1.35Z"/><path class="cls-1" d="M30,17.27a9,9,0,0,1,4.58,1.12l.92.53a1,1,0,0,0,.51.17.45.45,0,0,0,.42-.22l.3-.44a.27.27,0,0,1,.25-.11c.29,0,.43.3.43.91l0,1v1.28l.11,1.07.13.63a5.26,5.26,0,0,1,.08.83c0,.35-.13.53-.39.53s-.25-.11-.3-.34a6,6,0,0,0-.78-1.63A10.64,10.64,0,0,0,35,20.89a7.31,7.31,0,0,0-5.44-2.64,5.18,5.18,0,0,0-4.32,2.18,9.08,9.08,0,0,0-1.66,5.66,9.81,9.81,0,0,0,2.71,7.26,6.25,6.25,0,0,0,4.45,2,7.75,7.75,0,0,0,3-.68A7.18,7.18,0,0,0,36.28,33l.92-1a.58.58,0,0,1,.38-.24c.17,0,.26.09.26.31a3.73,3.73,0,0,1-1.11,1.84,9.22,9.22,0,0,1-7.18,3.29,8.94,8.94,0,0,1-6.71-2.65,9.41,9.41,0,0,1-2.58-6.87,11.37,11.37,0,0,1,1-4.54,9.94,9.94,0,0,1,2.59-3.61A9.2,9.2,0,0,1,30,17.27Z"/><path class="cls-1" d="M48.38,44.19l.12,1.4a2.66,2.66,0,0,0,.82,1.66,2.49,2.49,0,0,0,1.71.57c.46,0,.69.15.69.43s-.31.42-.92.42c-.26,0-.64,0-1.12-.08a29.5,29.5,0,0,0-3-.2,14.11,14.11,0,0,0-2.22.14,6.38,6.38,0,0,1-1,.14.38.38,0,0,1-.4-.3l0-.12.41-.33A2.54,2.54,0,0,0,44.81,47a3.44,3.44,0,0,0,.33-1.75V32.85A2.9,2.9,0,0,0,44.7,31a2.55,2.55,0,0,0-1.65-.73,4.17,4.17,0,0,1-.92-.22.4.4,0,0,1-.2-.37c0-.26.11-.39.34-.38a5.45,5.45,0,0,1,.76.11,9.27,9.27,0,0,0,1.7.11q.78,0,2-.09l1-.08c1-.07,1.7-.11,2.22-.11.31,0,.46.11.46.34a.57.57,0,0,1-.07.35.62.62,0,0,1-.35.13,2,2,0,0,0-1.3.56,3,3,0,0,0-.29,1.6Z"/><path class="cls-1" d="M21.21,11v.12a2.36,2.36,0,0,0,.51,1.54,1.56,1.56,0,0,0,1.25.63,2.19,2.19,0,0,0,1.28-.53l.08,0c.05,0,.07,0,.07.09s-.12.26-.37.45a2.35,2.35,0,0,1-1.48.55,1.89,1.89,0,0,1-1.47-.67,2.54,2.54,0,0,1,0-3.28,1.89,1.89,0,0,1,1.44-.7A1.68,1.68,0,0,1,24,9.93a2.72,2.72,0,0,1,.26.49,1.45,1.45,0,0,1,.14.44c0,.12-.12.18-.35.18h-2.8Zm0-.3h1.82c.29,0,.43-.05.43-.17a1.06,1.06,0,0,0-.37-.78,1.09,1.09,0,0,0-.78-.36.92.92,0,0,0-.74.36A1.82,1.82,0,0,0,21.24,10.72Z"/><path class="cls-1" d="M26.55,10a2,2,0,0,1,1.5-.86,1.6,1.6,0,0,1,1.36.71,2.53,2.53,0,0,1,.34,1.47v1.45l0,.26a.48.48,0,0,0,.45.41l.23,0c.09,0,.14.05.15.11s-.06.11-.18.11a1,1,0,0,1-.21,0l-.65,0-.53,0h-.36l-.08,0a.1.1,0,0,1,0-.08c0-.06,0-.09.09-.11l.16,0c.15,0,.22-.17.22-.39V11.23a1.74,1.74,0,0,0-.35-1.15,1.18,1.18,0,0,0-1-.4,1.26,1.26,0,0,0-.8.26.77.77,0,0,0-.35.6V13c0,.3.27.47.75.5.12,0,.18.05.18.11s0,.1-.12.1l-.28,0h-.5c-.57,0-.91,0-1,0l-.22,0c-.07,0-.1,0-.1-.09a.14.14,0,0,1,.11-.1.69.69,0,0,0,.36-.24.75.75,0,0,0,.1-.45V10.43a1,1,0,0,0-.09-.52.4.4,0,0,0-.35-.14h-.23l-.08,0A.07.07,0,0,1,25,9.68s0-.09.14-.1a2.8,2.8,0,0,0,.69-.23l.29-.14a1.12,1.12,0,0,0,.2-.1.27.27,0,0,1,.13,0c.07,0,.1,0,.09.16s0,.12,0,.2Z"/><path class="cls-1" d="M32.4,9.83v2.7a1.07,1.07,0,0,0,.15.69.84.84,0,0,0,.63.23,1.18,1.18,0,0,0,.55-.12L34,13.2l0,0s.07,0,.07.06-.15.25-.43.38a1.76,1.76,0,0,1-.79.21q-1.23,0-1.23-1.29V9.83h-.48c-.09,0-.14,0-.14-.08s.05-.11.14-.19a4.63,4.63,0,0,0,1-1.07c.1-.16.16-.24.2-.24s.08.05.08.14l0,.93h1.14a.75.75,0,0,0,.37-.08A.4.4,0,0,1,34,9.17s0,0,0,.06a.81.81,0,0,1,0,.14l-.12.31a.23.23,0,0,1-.24.15Z"/><path class="cls-1" d="M35.93,10.16c.41-.65.79-1,1.15-1a.84.84,0,0,1,.43.2c.18.13.28.24.29.32a.62.62,0,0,1-.18.3c-.11.14-.2.22-.25.22a.81.81,0,0,1-.23-.13.77.77,0,0,0-.44-.16.72.72,0,0,0-.55.24.84.84,0,0,0-.22.59v1.91a1.27,1.27,0,0,0,.12.64.51.51,0,0,0,.42.22l.28,0c.12,0,.18,0,.18.11s0,.1-.16.1l-.25,0H35.6a4.14,4.14,0,0,0-.6,0l-.2,0c-.09,0-.14,0-.14-.11s.05-.1.17-.12a.39.39,0,0,0,.29-.2,1.65,1.65,0,0,0,.07-.62v-2.3c0-.41-.2-.62-.59-.62h-.18c-.09,0-.13,0-.13-.11a.11.11,0,0,1,.08-.1l.12,0a2.84,2.84,0,0,0,1.19-.47.24.24,0,0,1,.13,0q.12,0,.12.18v.9Z"/><path class="cls-1" d="M38.88,11v.12a2.36,2.36,0,0,0,.51,1.54,1.54,1.54,0,0,0,1.25.63,2.14,2.14,0,0,0,1.27-.53l.09,0s.07,0,.07.09-.13.26-.38.45a2.3,2.3,0,0,1-1.47.55,1.86,1.86,0,0,1-1.47-.67,2.35,2.35,0,0,1-.6-1.64,2.41,2.41,0,0,1,.62-1.64,1.87,1.87,0,0,1,1.43-.7,1.69,1.69,0,0,1,1.44.75,3.55,3.55,0,0,1,.26.49,1.34,1.34,0,0,1,.13.44c0,.12-.11.18-.35.18H38.88Zm0-.3h1.82c.28,0,.42-.05.42-.17A1.24,1.24,0,0,0,40,9.41a.91.91,0,0,0-.73.36A1.67,1.67,0,0,0,38.91,10.72Z"/><path class="cls-1" d="M47.06,9.4h.88a.38.38,0,0,0,.23,0l.07-.09.09,0c.06,0,.08,0,.08.08l0,.12-.09.22c0,.12-.11.19-.2.2h-1v3a.91.91,0,0,0,.12.56.68.68,0,0,0,.49.17c.13,0,.2,0,.2.12s0,.09-.15.09l-.33,0-.33,0a8.2,8.2,0,0,0-.9,0,.76.76,0,0,1-.19,0c-.1,0-.15,0-.15-.11s0-.08.1-.1l.1,0a.36.36,0,0,0,.24-.21,1.07,1.07,0,0,0,.07-.47v-3h-.62c-.12,0-.17,0-.17-.07a.54.54,0,0,1,.08-.3.23.23,0,0,1,.2-.09h.51a4.57,4.57,0,0,1,.53-2.05,3,3,0,0,1,.87-1,1.67,1.67,0,0,1,1-.36c.32,0,.47.07.47.2a.3.3,0,0,1,0,.13l-.06.2c-.06.24-.13.36-.2.36s-.06,0-.09-.09-.26-.27-.57-.27c-.79,0-1.19.76-1.19,2.28Z"/><path class="cls-1" d="M51,9.24a2.25,2.25,0,0,1,1.66.68,2.15,2.15,0,0,1,.7,1.61,2.29,2.29,0,0,1-.68,1.69,2.39,2.39,0,0,1-1.73.66,2.3,2.3,0,0,1-1.68-.64,2.23,2.23,0,0,1-.66-1.66,2.27,2.27,0,0,1,.7-1.66A2.36,2.36,0,0,1,51,9.24Zm-.13.21a1.33,1.33,0,0,0-1.08.5,1.93,1.93,0,0,0-.41,1.3A2.81,2.81,0,0,0,49.86,13a1.54,1.54,0,0,0,1.27.69,1.24,1.24,0,0,0,1-.49,2.08,2.08,0,0,0,.38-1.33,2.87,2.87,0,0,0-.48-1.72A1.45,1.45,0,0,0,50.84,9.45Z"/><path class="cls-1" d="M55.6,10.22c.41-.66.8-1,1.15-1a.78.78,0,0,1,.44.2c.18.13.27.24.28.32a.71.71,0,0,1-.17.29c-.12.15-.2.22-.25.22a.79.79,0,0,1-.24-.12.76.76,0,0,0-.44-.17.72.72,0,0,0-.55.24.88.88,0,0,0-.22.59v1.92a1.25,1.25,0,0,0,.13.64.51.51,0,0,0,.42.21l.28,0c.11,0,.17.05.17.11s-.05.11-.15.11l-.26,0h-.92l-.6,0-.19,0c-.1,0-.15,0-.15-.1s.06-.1.17-.13a.42.42,0,0,0,.3-.19,2,2,0,0,0,.06-.62V10.48c0-.41-.19-.61-.59-.61h-.18c-.08,0-.12,0-.12-.11a.1.1,0,0,1,.08-.1h.12a3,3,0,0,0,1.19-.48l.12,0q.12,0,.12.18v.91Z"/><path class="cls-1" d="M41.33,18v6.3a1.74,1.74,0,0,0,.1.68c.08.18.3.3.67.36.1,0,.15.05.15.11s0,.12-.11.12l-.14,0-.24,0H40.38l-.21,0c-.09,0-.14,0-.14-.1s0-.11.15-.14a.51.51,0,0,0,.32-.18.61.61,0,0,0,.09-.37v-6c0-.33-.12-.49-.35-.49H40l-.1,0a.08.08,0,0,1-.06-.08c0-.05,0-.09.14-.12l.33-.1.33-.13a3.71,3.71,0,0,0,.53-.26.19.19,0,0,1,.1-.05c.06,0,.08.08.08.24Z"/><path class="cls-1" d="M44.23,24.67a1,1,0,0,0,.09.51.46.46,0,0,0,.35.16l.25,0c.13,0,.19.06.18.14s-.05.09-.14.09l-.35,0h-.72l-.4,0h-.16l-.2,0c-.09,0-.14,0-.14-.1s0-.09.1-.12l.1,0a.44.44,0,0,0,.24-.2,1.37,1.37,0,0,0,.06-.47V22.35a1.41,1.41,0,0,0-.08-.58c-.06-.09-.18-.13-.37-.13s-.21,0-.2-.09.09-.1.27-.15a6.46,6.46,0,0,0,.77-.35l.28-.13c.05,0,.07,0,.07.13Zm-.33-5.86c.09,0,.17.08.26.22l.13.2a.24.24,0,0,1,.06.14.59.59,0,0,1-.19.34c-.12.15-.22.23-.3.23s-.17-.08-.29-.22a.66.66,0,0,1-.17-.34.64.64,0,0,1,.19-.35C43.73,18.89,43.83,18.81,43.9,18.81Z"/><path class="cls-1" d="M47.12,21.89a2,2,0,0,1,1.5-.86,1.6,1.6,0,0,1,1.36.71,2.53,2.53,0,0,1,.34,1.47v1.45l0,.25a.48.48,0,0,0,.45.42l.23,0c.09,0,.14.05.15.11s-.06.11-.18.11l-.21,0-.65,0h-1a.1.1,0,0,1,0-.08c0-.06,0-.09.09-.11l.16,0c.15,0,.22-.17.22-.39V23.08a1.72,1.72,0,0,0-.35-1.15,1.18,1.18,0,0,0-1-.4,1.26,1.26,0,0,0-.8.26.76.76,0,0,0-.35.6v2.48c0,.3.26.47.74.5.12,0,.18.05.18.11s0,.1-.12.1l-.28,0h-.5c-.57,0-.91,0-1,0l-.22,0c-.07,0-.1,0-.1-.09a.14.14,0,0,1,.11-.1.6.6,0,0,0,.46-.69V22.28a1,1,0,0,0-.09-.52.4.4,0,0,0-.35-.14h-.23l-.08,0a.07.07,0,0,1,0-.08c0-.05,0-.09.14-.11a2.42,2.42,0,0,0,.69-.22l.29-.14a1.12,1.12,0,0,0,.2-.1.3.3,0,0,1,.13,0q.1,0,.09.15c0,.06,0,.13,0,.21Z"/><path class="cls-1" d="M53.19,24.67a1.16,1.16,0,0,0,.08.51.48.48,0,0,0,.35.16l.25,0c.13,0,.19.06.19.14s-.05.09-.15.09l-.35,0h-.72l-.39,0h-.17l-.19,0c-.1,0-.15,0-.15-.1s0-.09.1-.12l.1,0a.38.38,0,0,0,.24-.2,1.33,1.33,0,0,0,.07-.47V22.35a1.22,1.22,0,0,0-.09-.58c-.06-.09-.18-.13-.37-.13s-.2,0-.2-.09.1-.1.28-.15a6.44,6.44,0,0,0,.76-.35l.29-.13s.07,0,.07.13Zm-.34-5.86c.09,0,.18.08.27.22l.13.2a.3.3,0,0,1,0,.14.62.62,0,0,1-.18.34c-.13.15-.23.23-.31.23s-.16-.08-.28-.22a.62.62,0,0,1-.18-.34.67.67,0,0,1,.2-.35C52.68,18.89,52.78,18.81,52.85,18.81Z"/><path class="cls-1" d="M57,21a2.64,2.64,0,0,1,.83.12c.24.08.36.16.36.26v.16l0,.41c0,.19,0,.29-.13.3s-.09-.05-.15-.16a1.53,1.53,0,0,0-.58-.54,1.6,1.6,0,0,0-.78-.22,1,1,0,0,0-.86.48,2.14,2.14,0,0,0-.33,1.24,2.3,2.3,0,0,0,.51,1.51,1.58,1.58,0,0,0,1.25.62,1.77,1.77,0,0,0,1.17-.49.22.22,0,0,1,.13-.06c.06,0,.08,0,.08.07s-.08.2-.25.35a2.32,2.32,0,0,1-1.6.6,1.86,1.86,0,0,1-1.44-.63,2.16,2.16,0,0,1-.58-1.55,2.45,2.45,0,0,1,.69-1.75A2.19,2.19,0,0,1,57,21Z"/><path class="cls-1" d="M61.52,23.17v-.66a1.24,1.24,0,0,0-.23-.85,1.14,1.14,0,0,0-.84-.32c-.47,0-.71.2-.71.6a1.25,1.25,0,0,0,.07.4c0,.07,0,.13,0,.18s0,.09-.11.09a.84.84,0,0,1-.45-.11c-.14-.07-.21-.15-.21-.23a1.12,1.12,0,0,1,.36-.72A1.65,1.65,0,0,1,60.72,21a1.76,1.76,0,0,1,1.14.33,1.09,1.09,0,0,1,.4.91v2.1a1.51,1.51,0,0,0,.12.71.43.43,0,0,0,.41.22h.13l.12,0c.07,0,.09,0,.09.08s-.09.13-.25.2a1.46,1.46,0,0,1-.49.09,1,1,0,0,1-.8-.54,2.43,2.43,0,0,1-1.44.59,1.16,1.16,0,0,1-.8-.27.94.94,0,0,1-.3-.73,1.07,1.07,0,0,1,.57-1A5.51,5.51,0,0,1,61.52,23.17Zm0,.22a2.67,2.67,0,0,0-1.29.38.89.89,0,0,0-.45.77.79.79,0,0,0,.21.58.78.78,0,0,0,.59.22,1.05,1.05,0,0,0,.75-.29.82.82,0,0,0,.19-.6Z"/><path class="cls-1" d="M65,18v6.3a1.74,1.74,0,0,0,.1.68c.08.18.3.3.67.36.1,0,.15.05.15.11s0,.12-.11.12l-.14,0-.24,0H64.07l-.2,0c-.1,0-.15,0-.15-.1s.05-.11.15-.14a.57.57,0,0,0,.33-.18.7.7,0,0,0,.08-.37v-6c0-.33-.12-.49-.34-.49h-.27l-.09,0a.08.08,0,0,1-.07-.08c0-.05.05-.09.14-.12A2.75,2.75,0,0,0,64,18l.32-.13a3.23,3.23,0,0,0,.53-.26.21.21,0,0,1,.11-.05s.08.08.08.24Z"/><path class="cls-1" d="M54.16,33.22a2,2,0,0,1,1.49-.85,1.58,1.58,0,0,1,1.36.7,2.59,2.59,0,0,1,.34,1.48v1.7a.48.48,0,0,0,.46.42l.22,0c.1,0,.15,0,.15.1s0,.12-.18.12l-.2,0a5.3,5.3,0,0,0-.66,0h-1a.1.1,0,0,1,0-.09s0-.09.1-.1l.16,0q.21-.06.21-.39V34.42a1.72,1.72,0,0,0-.34-1.15,1.22,1.22,0,0,0-1-.41,1.24,1.24,0,0,0-.79.27.72.72,0,0,0-.35.6v2.48c0,.3.27.46.75.49.11,0,.17,0,.17.12s0,.1-.12.1l-.27,0h-.51c-.57,0-.91,0-1,0l-.22,0c-.06,0-.1,0-.09-.09s0-.08.1-.1a.79.79,0,0,0,.37-.24.84.84,0,0,0,.09-.45V33.61a1,1,0,0,0-.09-.51A.38.38,0,0,0,53,33h-.23a.14.14,0,0,1-.09,0,.08.08,0,0,1-.05-.07c0-.06.05-.09.14-.11a2.42,2.42,0,0,0,.69-.22l.29-.14.21-.1a.24.24,0,0,1,.13,0c.06,0,.09.05.08.15v.81Z"/><path class="cls-1" d="M60,33v2.7a1,1,0,0,0,.15.68.82.82,0,0,0,.63.23,1.28,1.28,0,0,0,.55-.11l.28-.14h0a.05.05,0,0,1,.06.06c0,.12-.14.24-.42.38a1.83,1.83,0,0,1-.79.21c-.83,0-1.24-.43-1.24-1.29V33h-.48c-.09,0-.14,0-.14-.08s0-.12.14-.2a4.6,4.6,0,0,0,1-1.06q.15-.24.21-.24s.07,0,.07.14l0,.93h1.15a.62.62,0,0,0,.36-.09.22.22,0,0,1,.12-.06s.06,0,0,.06a.3.3,0,0,1,0,.13l-.12.31a.23.23,0,0,1-.24.16Z"/><path class="cls-1" d="M62.75,34.21v.11a2.37,2.37,0,0,0,.51,1.55,1.55,1.55,0,0,0,1.25.62A2.17,2.17,0,0,0,65.78,36a.12.12,0,0,1,.08,0s.07,0,.07.09-.12.25-.37.45a2.41,2.41,0,0,1-1.48.55,1.91,1.91,0,0,1-1.47-.67A2.35,2.35,0,0,1,62,34.7a2.39,2.39,0,0,1,.61-1.63,1.84,1.84,0,0,1,1.43-.7,1.69,1.69,0,0,1,1.44.75,3,3,0,0,1,.26.49,1.31,1.31,0,0,1,.13.43c0,.12-.11.18-.35.18H62.75Zm0-.3H64.6c.28,0,.42-.06.42-.17a1.24,1.24,0,0,0-1.15-1.14.93.93,0,0,0-.73.35A1.81,1.81,0,0,0,62.78,33.91Z"/><path class="cls-1" d="M68.09,33.35c.42-.66.8-1,1.15-1a.86.86,0,0,1,.44.2c.18.13.27.24.28.32a.66.66,0,0,1-.17.3c-.12.14-.2.21-.25.22a1,1,0,0,1-.24-.13.75.75,0,0,0-.44-.16.68.68,0,0,0-.54.23.83.83,0,0,0-.22.59v1.92a1.27,1.27,0,0,0,.12.64.51.51,0,0,0,.42.21l.28,0c.11,0,.17,0,.17.1s0,.11-.15.11l-.25,0h-.93l-.6,0L67,37c-.1,0-.15,0-.15-.1s.06-.1.17-.12a.46.46,0,0,0,.3-.2,2,2,0,0,0,.06-.62v-2.3c0-.42-.19-.62-.59-.62h-.18c-.08,0-.12,0-.12-.11s0-.07.08-.1h.12a2.84,2.84,0,0,0,1.19-.48l.12,0c.08,0,.13.06.13.18v.91Z"/><path class="cls-1" d="M73,36.09l.91-1.91a2.5,2.5,0,0,0,.27-1c0-.25-.17-.4-.51-.46-.1,0-.15-.05-.15-.1s0-.11.14-.11h1.52q.13,0,.12.09s-.07.09-.22.15a.92.92,0,0,0-.42.49l-1.75,3.66a.2.2,0,0,1-.17.14.21.21,0,0,1-.2-.16L71,33.34a1.08,1.08,0,0,0-.59-.63c-.07,0-.11-.06-.11-.11s.06-.11.16-.11h.13a9.2,9.2,0,0,0,1,0l.46,0h.24c.08,0,.12,0,.12.11s0,.09-.15.1c-.33,0-.49.14-.49.31a.89.89,0,0,0,.1.36Z"/><path class="cls-1" d="M76,34.21v.11a2.37,2.37,0,0,0,.51,1.55,1.55,1.55,0,0,0,1.25.62A2.17,2.17,0,0,0,79.07,36s.05,0,.08,0,.07,0,.07.09-.12.25-.37.45a2.41,2.41,0,0,1-1.48.55,1.92,1.92,0,0,1-1.47-.67,2.54,2.54,0,0,1,0-3.28,1.85,1.85,0,0,1,1.44-.7,1.68,1.68,0,0,1,1.43.75,2.41,2.41,0,0,1,.26.49,1.42,1.42,0,0,1,.14.43c0,.12-.12.18-.35.18H76Zm0-.3h1.82c.29,0,.43-.06.43-.17A1.06,1.06,0,0,0,78,33a1.09,1.09,0,0,0-.78-.36.94.94,0,0,0-.74.35A1.9,1.9,0,0,0,76.07,33.91Z"/><path class="cls-1" d="M81.38,33.22a2,2,0,0,1,1.5-.85,1.59,1.59,0,0,1,1.36.7,2.59,2.59,0,0,1,.34,1.48V36l0,.26a.48.48,0,0,0,.45.42l.23,0c.09,0,.14,0,.15.1s-.06.12-.18.12l-.21,0a5.11,5.11,0,0,0-.65,0h-1a.12.12,0,0,1,0-.09.1.1,0,0,1,.09-.1l.16,0c.15,0,.22-.17.22-.39V34.42a1.72,1.72,0,0,0-.35-1.15,1.19,1.19,0,0,0-1-.41,1.27,1.27,0,0,0-.8.27.74.74,0,0,0-.35.6v2.48c0,.3.27.46.75.49q.18,0,.18.12c0,.07,0,.1-.12.1l-.28,0h-.5c-.57,0-.91,0-1,0l-.22,0c-.07,0-.1,0-.1-.09a.14.14,0,0,1,.11-.1.6.6,0,0,0,.46-.69V33.61a1,1,0,0,0-.09-.51.4.4,0,0,0-.35-.14H80a.11.11,0,0,1-.08,0,.06.06,0,0,1-.05-.07c0-.06,0-.09.14-.11a2.42,2.42,0,0,0,.69-.22L81,32.4l.2-.1a.27.27,0,0,1,.13,0q.11,0,.09.15c0,.06,0,.13,0,.21Z"/><path class="cls-1" d="M87.23,33v2.7a1,1,0,0,0,.15.68.79.79,0,0,0,.63.23,1.31,1.31,0,0,0,.55-.11l.28-.14h0s.07,0,.07.06-.15.24-.43.38a1.76,1.76,0,0,1-.79.21q-1.23,0-1.23-1.29V33H86c-.09,0-.14,0-.14-.08s0-.12.14-.2a4.6,4.6,0,0,0,1-1.06c.1-.16.16-.24.2-.24s.08,0,.08.14l0,.93h1.14a.65.65,0,0,0,.37-.09.24.24,0,0,1,.11-.06s.06,0,.06.06a.58.58,0,0,1,0,.13l-.12.31a.23.23,0,0,1-.24.16Z"/><path class="cls-1" d="M90.77,36a1.18,1.18,0,0,0,.08.52.48.48,0,0,0,.35.16l.25,0c.13,0,.19.06.19.14s0,.08-.15.08a2.83,2.83,0,0,1-.35,0h-.72l-.39,0-.17,0-.19,0c-.1,0-.15,0-.15-.1a.12.12,0,0,1,.1-.12l.1,0a.42.42,0,0,0,.24-.21A1.22,1.22,0,0,0,90,36V33.69a1.19,1.19,0,0,0-.09-.58c-.06-.09-.18-.13-.37-.13s-.2,0-.2-.09.1-.1.28-.16a4.91,4.91,0,0,0,.76-.34l.29-.13s.07,0,.07.13Zm-.34-5.85c.09,0,.18.07.27.22l.13.2a.3.3,0,0,1,0,.14.65.65,0,0,1-.18.34c-.13.15-.23.22-.31.22s-.16-.07-.28-.21a.65.65,0,0,1-.18-.34.64.64,0,0,1,.2-.35C90.26,30.22,90.36,30.15,90.43,30.15Z"/><path class="cls-1" d="M94.58,32.37a2.3,2.3,0,0,1,1.66.68,2.19,2.19,0,0,1,.69,1.62,2.23,2.23,0,0,1-.68,1.68,2.38,2.38,0,0,1-1.72.67,2.31,2.31,0,0,1-1.68-.65,2.37,2.37,0,0,1,0-3.32A2.34,2.34,0,0,1,94.58,32.37Zm-.14.21a1.36,1.36,0,0,0-1.08.5,2,2,0,0,0-.41,1.3,2.75,2.75,0,0,0,.52,1.72,1.52,1.52,0,0,0,1.27.69,1.26,1.26,0,0,0,1.05-.49A2.12,2.12,0,0,0,96.17,35a2.87,2.87,0,0,0-.48-1.72A1.49,1.49,0,0,0,94.44,32.58Z"/><path class="cls-1" d="M99.21,33.22a2,2,0,0,1,1.49-.85,1.59,1.59,0,0,1,1.36.7,2.59,2.59,0,0,1,.34,1.48v1.7a.48.48,0,0,0,.45.42l.23,0c.09,0,.15,0,.15.1s-.06.12-.18.12l-.21,0a5,5,0,0,0-.65,0h-1a.11.11,0,0,1,.05-.19l.17,0q.21-.06.21-.39V34.42a1.72,1.72,0,0,0-.34-1.15,1.22,1.22,0,0,0-1-.41,1.27,1.27,0,0,0-.8.27.73.73,0,0,0-.34.6v2.48c0,.3.26.46.74.49q.18,0,.18.12c0,.07,0,.1-.12.1l-.28,0h-.5c-.57,0-.91,0-1,0l-.22,0q-.1,0-.09-.09s0-.08.1-.1a.58.58,0,0,0,.46-.69V33.61a1,1,0,0,0-.09-.51A.4.4,0,0,0,98,33H97.8a.11.11,0,0,1-.08,0,.06.06,0,0,1,0-.07c0-.06,0-.09.14-.11a2.42,2.42,0,0,0,.69-.22l.29-.14.21-.1a.24.24,0,0,1,.12,0q.1,0,.09.15v.81Z"/><path class="cls-1" d="M105.28,32.37a2.24,2.24,0,0,1,.73.11l.24.08a.18.18,0,0,1,.14.16v.09a.76.76,0,0,0,0,.15l0,.21a1.5,1.5,0,0,1,0,.2c0,.14,0,.21-.12.22s-.09,0-.12-.14a1.11,1.11,0,0,0-1.11-.82.75.75,0,0,0-.53.19.6.6,0,0,0-.2.46.58.58,0,0,0,.22.48,4,4,0,0,0,.9.45,2.4,2.4,0,0,1,.93.55,1.17,1.17,0,0,1,.26.79,1.36,1.36,0,0,1-.45,1,1.48,1.48,0,0,1-1.07.44,2.24,2.24,0,0,1-1-.26L104,36.7h-.14a.14.14,0,0,1-.14-.14v-.23l0-.68v-.16q0-.15.12-.15c.07,0,.11.05.14.16a1.76,1.76,0,0,0,.43.92,1,1,0,0,0,.79.34.93.93,0,0,0,.64-.23.82.82,0,0,0,.25-.6.89.89,0,0,0-.61-.82l-.47-.21a2.6,2.6,0,0,1-.92-.57,1,1,0,0,1-.26-.73,1.1,1.1,0,0,1,.41-.87A1.56,1.56,0,0,1,105.28,32.37Z"/></svg>